<svg xmlns="http://www.w3.org/2000/svg" width="47.622" height="46.918" viewBox="0 0 47.622 46.918"><g transform="translate(0 0)"><path d="M487.8,218.491v-1.546h3.911V206.61H489.1a1.293,1.293,0,0,1-.492-.011c-.267-.122-.621-.253-.722-.478a.933.933,0,0,1,.133-.842q2.345-2.427,4.767-4.776a1.2,1.2,0,0,1,.771-.235c2.216-.018,4.433-.01,6.649-.01q14.638,0,29.276-.009a1.575,1.575,0,0,1,1.225.507c1.412,1.44,2.846,2.861,4.276,4.284.306.3.573.614.368,1.085s-.607.493-1.04.489c-1.191-.009-2.381,0-3.612,0v1.576h2.315v1.578H530.69v7.153h1.517v1.573Zm23.029-10.3h3.117V206.61c-2.037,0-4.037-.009-6.037.007a1.355,1.355,0,0,1-1.052-.439c-1.194-1.215-2.4-2.415-3.61-3.619-.123-.123-.255-.239-.408-.381-.713.722-1.4,1.39-2.051,2.1a1.18,1.18,0,0,0-.294.723c-.018,3.805-.012,7.61-.012,11.415v.49h1.611V204.256h1.578V216.9h10.282v-7.123h-3.125Zm8.748,1.615V216.9h9.468v-7.086Zm-23.035-3.158V216.9h2.33V206.213C498.169,206.9,497.328,206.475,496.54,206.651Zm19.063,3.16V216.9h2.323v-7.084Zm-20.718,7.1V206.634h-1.526v10.278Zm34.161-10.268h-9.467v1.529h9.467Zm-11.116-.009H515.6v1.529h2.332Z" transform="translate(-487.798 -171.579)"/><path d="M496.637,179.365a7.947,7.947,0,1,1-7.959,7.893A7.908,7.908,0,0,1,496.637,179.365Zm0,1.6a6.351,6.351,0,1,0,6.328,6.411A6.359,6.359,0,0,0,496.641,180.969Z" transform="translate(-487.908 -168.967)"/><path d="M514.805,167.583a7.941,7.941,0,1,1-7.972,7.983A7.953,7.953,0,0,1,514.805,167.583Zm-.021,14.293a6.353,6.353,0,1,0-6.364-6.329A6.377,6.377,0,0,0,514.784,181.876Z" transform="translate(-490.179 -167.493)"/><path d="M539.958,187.286a7.94,7.94,0,1,1-7.937-7.9A7.941,7.941,0,0,1,539.958,187.286Zm-7.916-6.314a6.351,6.351,0,1,0,6.33,6.412A6.357,6.357,0,0,0,532.041,180.972Z" transform="translate(-492.336 -168.969)"/><path d="M515.65,197.064h-1.529V187.6h1.529Z" transform="translate(-491.091 -169.996)"/><path d="M506.619,167.48l1.09,1.146A9.588,9.588,0,0,0,504.8,176.2a2.489,2.489,0,0,1-.328.073c-.393.029-.787.049-1.251.076A11.176,11.176,0,0,1,506.619,167.48Z" transform="translate(-489.725 -167.48)"/><path d="M508.667,190.932v-1.5a3.049,3.049,0,0,1,3.052,2.319,2.537,2.537,0,0,1,.1.585c.008,1.635,0,3.27,0,4.942h-1.581v-1.762q0-1.339,0-2.678A1.673,1.673,0,0,0,508.667,190.932Z" transform="translate(-490.408 -170.224)"/><path d="M520.882,191.214v1.513c-1.223.311-1.572.766-1.572,2.034,0,.906,0,1.813,0,2.748h-1.562c0-1.2-.09-2.4.022-3.571A3.052,3.052,0,0,1,520.882,191.214Z" transform="translate(-491.54 -170.449)"/><path d="M529.266,170.061h-1.529v-1.527h1.529Z" transform="translate(-492.794 -167.612)"/><path d="M536.818,174.872h1.522v1.53h-1.522Z" transform="translate(-493.93 -168.405)"/><path d="M488.7,200.013V198.48h1.542v1.533Z" transform="translate(-487.911 -171.358)"/><path d="M541.985,198.475V200h-1.532v-1.524Z" transform="translate(-494.385 -171.357)"/><path d="M495.975,173.947h1.516v1.543h-1.516Z" transform="translate(-488.821 -168.289)"/><path d="M489.617,169.424h1.524v1.533h-1.524Z" transform="translate(-488.026 -167.723)"/><path d="M540.44,220.888V219.36h1.536v1.528Z" transform="translate(-494.383 -173.97)"/><path d="M510.5,209.359h1.523V210.9H510.5Z" transform="translate(-490.638 -172.719)"/><path d="M493.254,185.129l1.154-1.174c.348.685.875.529,1.462.421a2.008,2.008,0,0,1,1.823.658l-1.129,1.082a.713.713,0,0,0-1.034.066.7.7,0,0,0-.2.927.68.68,0,0,0,.868.277c.536-.165,1.061-.366,1.6-.523a2.239,2.239,0,0,1,2.919,1.872,1.233,1.233,0,0,1-.016.586c-.211.551-.186,1.014.4,1.316l-1.166,1.1c-.3-.595-.829-.439-1.415-.326a2.026,2.026,0,0,1-1.82-.648l1.125-1.087c.5.265.822.258,1.114-.191a.914.914,0,0,0,.093-.792.857.857,0,0,0-.735-.295c-.578.111-1.131.354-1.7.521A2.237,2.237,0,0,1,493.664,187a1.189,1.189,0,0,1,.02-.539A.924.924,0,0,0,493.254,185.129Z" transform="translate(-488.48 -169.541)"/><path d="M514.773,171.213c.481,0,.893,0,1.3,0,.079,0,.158.01.3.019-.182.659.167.962.671,1.276a2.048,2.048,0,0,1,.9,1.855h-1.5c-.268-.66-.478-.86-.993-.746a.918.918,0,0,0-.62.506.87.87,0,0,0,.319.729,10.059,10.059,0,0,0,1.4.729,2.279,2.279,0,0,1,.065,4.164.658.658,0,0,0-.246.4,2.484,2.484,0,0,0-.01.565h-1.589a3.053,3.053,0,0,1,0-.4.594.594,0,0,0-.4-.677,2.178,2.178,0,0,1-1.185-2.048h1.5c.27.658.482.861.993.746a.924.924,0,0,0,.621-.507.875.875,0,0,0-.32-.73,10.142,10.142,0,0,0-1.4-.73,2.277,2.277,0,0,1-.063-4.162.658.658,0,0,0,.245-.4A2.7,2.7,0,0,0,514.773,171.213Z" transform="translate(-490.974 -167.947)"/><path d="M535.4,188.435l-.99-1.163c.227-.547.22-.838-.222-1.116a.915.915,0,0,0-.791-.083.861.861,0,0,0-.286.739c.113.578.358,1.129.525,1.7a2.237,2.237,0,0,1-1.875,2.916,1.238,1.238,0,0,1-.587-.017.919.919,0,0,0-1.324.414l-1.106-1.174c.555-.3.5-.794.352-1.378a2.114,2.114,0,0,1,.828-2.011,6.053,6.053,0,0,0,.414.613,6.916,6.916,0,0,0,.582.545.764.764,0,0,0,.014,1.183.685.685,0,0,0,.894.163.655.655,0,0,0,.281-.821c-.168-.553-.37-1.095-.532-1.648a2.238,2.238,0,0,1,1.876-2.916,2.02,2.02,0,0,1,.59.012c.769.119.768.124,1.369-.367l1.066,1.129c-.573.307-.509.8-.368,1.385A1.989,1.989,0,0,1,535.4,188.435Z" transform="translate(-492.919 -169.55)"/></g></svg>