<svg xmlns="http://www.w3.org/2000/svg" width="49.481" height="41.749" viewBox="0 0 49.481 41.749"><g transform="translate(0 0)"><path d="M558.927,200.008a1.218,1.218,0,0,1,1.038-.583q3.061-.422,6.114-.891a.782.782,0,0,0,.464-.4q1.389-2.759,2.738-5.536c.174-.355.375-.631.82-.629s.643.276.817.632c.889,1.821,1.8,3.631,2.682,5.455a.8.8,0,0,0,.712.52c2.041.27,4.077.582,6.115.877a.849.849,0,0,1,.807.584.9.9,0,0,1-.36.934c-1.47,1.422-2.928,2.857-4.4,4.272a.764.764,0,0,0-.27.79c.37,2.025.7,4.057,1.056,6.086a.889.889,0,0,1-.262.964.871.871,0,0,1-1.034-.029c-1.818-.965-3.645-1.916-5.46-2.887a.743.743,0,0,0-.792,0c-1.8.963-3.613,1.907-5.419,2.861-.355.188-.707.345-1.077.055a.917.917,0,0,1-.254-1.006q.545-3.065,1.042-6.137a.82.82,0,0,0-.215-.615c-1.45-1.442-2.921-2.863-4.383-4.294-.171-.167-.316-.36-.474-.541Zm16.531,11.028c-.012-.187-.01-.3-.029-.408-.273-1.584-.533-3.172-.834-4.751a1.385,1.385,0,0,1,.459-1.414c1.166-1.086,2.292-2.216,3.431-3.33.1-.094.182-.2.314-.345-1.8-.264-3.536-.535-5.272-.763a1.238,1.238,0,0,1-1.061-.768c-.693-1.451-1.416-2.887-2.128-4.328-.069-.141-.147-.277-.243-.456-.1.193-.175.335-.246.478-.726,1.47-1.458,2.937-2.174,4.412a1.025,1.025,0,0,1-.837.637c-.733.1-1.466.2-2.2.308-1.059.155-2.115.315-3.173.472l-.091.15a2.5,2.5,0,0,1,.4.264c1.169,1.13,2.326,2.272,3.5,3.4a1.068,1.068,0,0,1,.351,1.078c-.189.929-.331,1.868-.488,2.8-.141.833-.278,1.667-.426,2.561.209-.1.354-.167.494-.24,1.41-.74,2.828-1.464,4.223-2.23a1.258,1.258,0,0,1,1.349,0C572.3,209.4,573.845,210.189,575.458,211.035Z" transform="translate(-558.927 -173.045)"/><path d="M618.322,200.491c-.307.327-.6.666-.923.98-1.31,1.285-2.634,2.558-3.933,3.855a.815.815,0,0,0-.214.614c.334,2.08.694,4.157,1.061,6.232a.849.849,0,0,1-.274.911.806.806,0,0,1-.948.01c-1.835-.969-3.676-1.924-5.5-2.906a.813.813,0,0,0-.878.005c-1.756.943-3.528,1.86-5.291,2.791-.379.2-.749.42-1.161.1-.385-.3-.3-.7-.231-1.106.355-2.028.7-4.058,1.029-6.091a.762.762,0,0,0-.218-.562q-2.2-2.177-4.425-4.321c-.294-.284-.532-.576-.382-1.011.144-.414.507-.5.888-.552,2.054-.293,4.11-.581,6.161-.9a.825.825,0,0,0,.513-.4c.929-1.836,1.839-3.683,2.742-5.534.174-.357.374-.631.817-.633s.647.275.82.629c.891,1.82,1.8,3.631,2.682,5.455a.805.805,0,0,0,.71.524c2.041.27,4.08.563,6.112.894.3.05.568.352.85.537Zm-11.166-6.027c-.1.2-.181.337-.251.478-.728,1.47-1.462,2.936-2.177,4.412a1.06,1.06,0,0,1-.879.652c-1.179.157-2.358.33-3.536.5-.6.089-1.207.188-1.567.245,1.148,1.236,2.345,2.542,3.564,3.826a1.131,1.131,0,0,1,.367,1.078c-.168.868-.3,1.742-.452,2.614-.153.9-.3,1.8-.466,2.761.2-.093.334-.147.459-.213,1.424-.747,2.857-1.478,4.265-2.255a1.216,1.216,0,0,1,1.349.009c.467.282.964.516,1.448.769l3.235,1.7c-.011-.155-.01-.251-.026-.344-.286-1.68-.562-3.363-.87-5.039a1.046,1.046,0,0,1,.336-1.036c1.067-1.027,2.123-2.066,3.184-3.1l.722-.7c-.222-.048-.36-.086-.5-.107-1.608-.234-3.214-.478-4.825-.69a1.142,1.142,0,0,1-.995-.711c-.313-.688-.66-1.36-.995-2.038C608.1,196.352,607.639,195.436,607.156,194.463Z" transform="translate(-568.841 -173.044)"/><path d="M570.756,166.132a1.136,1.136,0,0,1,.49,1.118c-.032.38-.007.765-.007,1.2.5,0,.959-.006,1.42,0,.559.008.906.319.895.788a.787.787,0,0,1-.881.754c-.462.008-.924,0-1.434,0,0,.506.006.968,0,1.429-.009.537-.3.873-.749.887-.47.015-.784-.333-.793-.889-.007-.45,0-.9,0-1.426-.472,0-.931,0-1.389,0-.576-.006-.917-.288-.927-.757s.345-.782.944-.787c.433,0,.866,0,1.371,0,0-.414.025-.81-.007-1.2a1.132,1.132,0,0,1,.49-1.118Z" transform="translate(-561.188 -166.132)"/><path d="M612.978,166.132a1.135,1.135,0,0,1,.489,1.118c-.031.38-.006.765-.006,1.2.5,0,.959-.006,1.42,0,.558.008.906.319.894.788a.786.786,0,0,1-.881.754c-.461.008-.924,0-1.434,0,0,.506.006.968,0,1.429-.009.537-.3.873-.749.887-.469.015-.784-.333-.793-.889-.007-.45,0-.9,0-1.426-.472,0-.93,0-1.389,0-.577-.006-.917-.288-.927-.757s.345-.782.944-.787c.4,0,.8,0,1.206-.005a1.363,1.363,0,0,0,.166-.031c0-.379.026-.775-.006-1.167a1.131,1.131,0,0,1,.489-1.118Z" transform="translate(-572.484 -166.132)"/><path d="M591.287,220.874a1.13,1.13,0,0,1-.489-1.118c.032-.379.006-.764.006-1.2-.5,0-.959.006-1.42,0-.559-.009-.906-.319-.9-.788.01-.453.344-.746.879-.754.463-.008.925,0,1.437,0,0-.5-.006-.966,0-1.428.009-.556.324-.9.793-.888.453.014.74.347.749.886.007.462,0,.924,0,1.43.51,0,.972-.006,1.434,0,.537.009.871.3.881.753.011.469-.336.778-.894.79-.225.005-.45,0-.675,0h-.746c0,.413-.025.809.007,1.2a1.138,1.138,0,0,1-.489,1.119Z" transform="translate(-566.836 -179.125)"/><path d="M581.442,188.657c.21-1.227.436-2.542.662-3.858.141-.825.275-1.65.432-2.471a.713.713,0,0,0-.246-.72c-1.474-1.417-2.933-2.85-4.4-4.272-.292-.283-.536-.571-.378-1.009.148-.411.5-.491.885-.545,2.023-.283,4.043-.586,6.065-.872a.752.752,0,0,0,.645-.471c.9-1.852,1.822-3.691,2.723-5.54a.866.866,0,0,1,.792-.6.855.855,0,0,1,.8.585c.9,1.849,1.827,3.688,2.722,5.541a.789.789,0,0,0,.683.491c2.024.281,4.044.583,6.066.867.391.055.729.155.862.574s-.1.7-.376.97c-1.468,1.422-2.926,2.857-4.4,4.272a.76.76,0,0,0-.255.762c.346,1.948.678,3.9,1.014,5.847a4.38,4.38,0,0,1,.073.526.751.751,0,0,1-1.057.778,3.74,3.74,0,0,1-.433-.212c-1.778-.935-3.56-1.866-5.333-2.814a.658.658,0,0,0-.706,0q-2.789,1.485-5.594,2.94A.784.784,0,0,1,581.442,188.657Zm7.184-17.874c-.837,1.693-1.63,3.272-2.4,4.863a1.131,1.131,0,0,1-.947.705c-.989.129-1.975.275-2.962.418-.775.112-1.548.231-2.323.346l-.073.129a4.5,4.5,0,0,1,.41.318c1.156,1.121,2.3,2.252,3.463,3.367a1.065,1.065,0,0,1,.367,1.033c-.182,1-.352,2-.523,2.993-.134.78-.261,1.562-.405,2.419.245-.12.4-.193.557-.274,1.409-.74,2.824-1.469,4.223-2.228a1.167,1.167,0,0,1,1.223,0c1.415.763,2.844,1.5,4.268,2.248.144.076.3.14.51.242-.313-1.827-.6-3.554-.913-5.277a1.168,1.168,0,0,1,.36-1.17c1.178-1.12,2.334-2.264,3.5-3.4.108-.105.207-.22.344-.368a2.927,2.927,0,0,0-.29-.078c-1.337-.2-2.674-.387-4.01-.584-2.006-.3-1.531.015-2.433-1.763C589.93,173.451,589.309,172.167,588.626,170.783Z" transform="translate(-563.885 -166.712)"/><path d="M564.9,186.95c0,.481.009.948,0,1.414a.773.773,0,1,1-1.541,0c-.011-.465,0-.931,0-1.473-.475,0-.934,0-1.393,0-.575-.007-.917-.292-.923-.762s.338-.774.9-.782c.448-.006.9,0,1.414,0,0-.485,0-.944,0-1.4.007-.568.3-.913.772-.913s.764.346.771.913c.006.448,0,.9,0,1.4h1.222c.732,0,1.1.267,1.094.785s-.368.758-1.071.761c-.37,0-.74,0-1.109.009A.558.558,0,0,0,564.9,186.95Z" transform="translate(-559.493 -170.652)"/><path d="M618.248,185.342c0-.529-.007-.994,0-1.458a.776.776,0,1,1,1.542.012c.009.464,0,.927,0,1.445.5,0,.96-.006,1.421,0,.559.008.907.32.9.79-.012.452-.348.742-.884.754-.45.01-.9.011-1.351.018-.012,0-.023.021-.08.076,0,.416.006.879,0,1.341a.787.787,0,0,1-.755.882c-.469.011-.779-.337-.788-.9-.006-.45,0-.9,0-1.419-.48,0-.939,0-1.4,0-.57-.007-.914-.3-.917-.768s.34-.768.908-.776C617.289,185.337,617.737,185.342,618.248,185.342Z" transform="translate(-574.179 -170.652)"/></g></svg>