<svg xmlns="http://www.w3.org/2000/svg" width="43.811" height="43.811" viewBox="0 0 43.811 43.811"><defs><style>.a{stroke:#000;stroke-miterlimit:10;stroke-width:0.25px;}</style></defs><g transform="translate(0.125 0.125)"><path class="a" d="M752.866,214.7c0-3.233.014-6.466-.011-9.7a1.58,1.58,0,0,0-1.015-1.6c-1.1-.443-2.19-.928-3.275-1.411a.388.388,0,0,0-.516.095c-.582.6-1.189,1.178-1.762,1.787a.894.894,0,0,0-.217.55c-.02,1.133-.01,2.267-.01,3.431H744.7c0-.861-.064-1.727.017-2.579a2.132,2.132,0,0,0-.861-2.052c-.431-.34-.779-.783-1.189-1.154a.492.492,0,0,0-.428-.08c-1.215.507-2.438,1-3.621,1.575a1.469,1.469,0,0,0-.717,1.392c-.016,3.246-.009,6.494-.009,9.741h-1.361c0-3.273.009-6.547-.005-9.82a4.452,4.452,0,0,1,.886-2.208c.083-.147.322-.219.5-.3,1.283-.562,2.561-1.137,3.86-1.658.414-.167.429-.5.577-.809.181-.378.04-.589-.228-.861a5.247,5.247,0,0,1-1.482-3.653c-.053-1.926-.033-3.855-.009-5.781a1.089,1.089,0,0,1,.368-.708,7.3,7.3,0,0,1,8.761,0,1.135,1.135,0,0,1,.367.75c.03,1.827.037,3.656,0,5.484a5.538,5.538,0,0,1-1.7,4.124.467.467,0,0,0-.1.356,1.455,1.455,0,0,0,1.042,1.269c1.207.443,2.378.987,3.546,1.528a1.758,1.758,0,0,1,.654.612,4.414,4.414,0,0,1,.67,2.656c-.046,3-.017,6.008-.017,9.012Zm-4.094-20.49a2.533,2.533,0,0,1-1.817-1.15.5.5,0,0,0-.36-.138c-.566-.015-1.134.006-1.7-.01s-1.136-.08-1.43.572a.221.221,0,0,1-.094.084c-.447.249-.9.5-1.386.766a6.039,6.039,0,0,0,.344,2.554,3.237,3.237,0,0,0,5.885.469A5.9,5.9,0,0,0,748.773,194.212Zm-6.8-1.442c.493-.113.586-.2.685-.575.126-.483.306-.634.807-.637q1.889-.008,3.779,0c.551,0,.711.129.854.679a.663.663,0,0,0,.68.525c0-.919.009-1.809-.009-2.7a.5.5,0,0,0-.212-.355,6.072,6.072,0,0,0-6.364,0,.492.492,0,0,0-.212.355C741.969,190.953,741.976,191.844,741.976,192.77Zm1.663,7.3c-.03.371-.186.772-.053.929.543.645,1.174,1.215,1.8,1.84.506-.508.983-.989,1.461-1.468.524-.526.525-.525.156-1.253A5.1,5.1,0,0,1,743.639,200.073Z" transform="translate(-723.599 -171.142)"/><path class="a" d="M719.611,189.218l5.913-8.036c.529-.719,1.052-1.442,1.586-2.157.428-.575.919-.576,1.339,0q3.611,4.915,7.218,9.835c.2.269.377.542.2.895a.823.823,0,0,1-.866.4c-.8-.007-1.609,0-2.446,0v4.732h-1.35c-.007-.121-.023-.244-.023-.367q0-2.4,0-4.805c0-.695.223-.918.914-.921.576,0,1.152,0,1.828,0l-6.146-8.38-6.127,8.357h6.1v1.368h-3.353v12.239h-1.367V190.149h-1.457c-.34,0-.681-.014-1.02,0a.893.893,0,0,1-.94-.51Z" transform="translate(-719.611 -169.054)"/><path class="a" d="M771.573,189.643a.91.91,0,0,1-.935.512c-.8-.021-1.611-.006-2.463-.006V202.38h-1.353V190.164H763.44V188.8h6.117l-6.152-8.393-6.148,8.38h1.447c.184,0,.369-.006.553,0a.673.673,0,0,1,.737.706c.012,1.785.005,3.57.005,5.386h-1.343v-4.734h-1.583c-.312,0-.624,0-.936,0a.792.792,0,0,1-.823-.4.771.771,0,0,1,.179-.859q3.007-4.095,6.01-8.192c.41-.56.817-1.123,1.234-1.679a.736.736,0,0,1,1.339.007q3.73,5.09,7.456,10.182c.007.008.027.007.04.01Z" transform="translate(-728.013 -169.053)"/><path class="a" d="M745.763,166.111a4.908,4.908,0,0,1,.6.581q3.529,4.79,7.041,9.593c.059.079.149.154.168.242.053.248.18.561.082.739a.944.944,0,0,1-.671.393c-.719.05-1.444.018-2.167.018h-.447v2.691h-1.357c0-1.159-.024-2.316.013-3.472.014-.411.354-.582.76-.58.619,0,1.237,0,1.955,0l-6.146-8.38-6.147,8.38h1.7c.862,0,1.041.181,1.041,1.05,0,.99,0,1.981,0,3h-1.345v-2.692h-1.5c-.34,0-.68,0-1.02,0a.793.793,0,0,1-.824-.4.77.77,0,0,1,.179-.859q3.006-4.094,6.008-8.19c.377-.514.742-1.037,1.136-1.538a5.8,5.8,0,0,1,.6-.579Z" transform="translate(-723.813 -166.111)"/><path class="a" d="M740.986,221.859V217.8h1.362v4.057Z" transform="translate(-724.651 -178.299)"/><path class="a" d="M753.455,221.859V217.8h1.361v4.057Z" transform="translate(-727.591 -178.299)"/><path class="a" d="M736.1,201.76v1.308h-1.316V201.76Z" transform="translate(-723.189 -174.516)"/><path class="a" d="M759.73,201.755h1.308v1.308H759.73Z" transform="translate(-729.07 -174.515)"/><path class="a" d="M725.413,212.879H724.1v-1.318h1.31Z" transform="translate(-720.67 -176.827)"/><path class="a" d="M771.728,211.556v1.309h-1.316v-1.309Z" transform="translate(-731.589 -176.826)"/></g></svg>