<svg xmlns="http://www.w3.org/2000/svg" width="49.004" height="46.156" viewBox="0 0 49.004 46.156"><g transform="translate(0 0)"><path d="M690.057,203.55c-.112.544-.2,1.1-.339,1.632a10.364,10.364,0,0,1-19.44,1.761c-.047-.1-.1-.2-.16-.33a20.558,20.558,0,0,1-17.052-.274,20.294,20.294,0,0,1-9.523-9.012,20.613,20.613,0,0,1,3.528-24.369,20.761,20.761,0,0,1,34.952,19.467,2.34,2.34,0,0,0,.285.118,10.365,10.365,0,0,1,7.667,8.782,1.054,1.054,0,0,0,.081.216Zm-32.618-13.191a7.438,7.438,0,1,1,8.768.011,17.077,17.077,0,0,1,7.16,3.943,1.511,1.511,0,0,0,.178-.088,10.231,10.231,0,0,1,6.206-2.022c.3,0,.322-.16.372-.374a18.787,18.787,0,0,0-16.473-23,18.792,18.792,0,0,0-17.176,29.515c.1.134.2.259.33.418A17.157,17.157,0,0,1,657.439,190.359Zm14.507,5.314a14.278,14.278,0,0,0-8.908-3.856c-6.484-.345-11.351,2.376-14.58,8.02-.239.417-.3.73.143,1.044.27.192.482.464.738.679q8.911,7.473,19.778,3.325c.345-.132.4-.307.338-.645a9.919,9.919,0,0,1,.376-4.9A10.664,10.664,0,0,1,671.946,195.673Zm16.148,6.9A8.409,8.409,0,1,0,679.663,211,8.409,8.409,0,0,0,688.095,202.568Zm-26.286-12.786a5.456,5.456,0,1,0-5.437-5.494A5.458,5.458,0,0,0,661.808,189.782Z" transform="translate(-641.054 -166.799)"/><path d="M685.375,210.49c1.3-1.6,2.573-3.153,3.844-4.708.111-.136.218-.276.34-.4a.971.971,0,0,1,1.5,1.236c-.126.184-.273.353-.414.525q-2.057,2.52-4.115,5.038c-.585.714-1,.777-1.757.268q-1.327-.895-2.651-1.8a.992.992,0,1,1,1.086-1.632C683.917,209.5,684.626,209.983,685.375,210.49Z" transform="translate(-647.77 -173.147)"/></g></svg>