<svg xmlns="http://www.w3.org/2000/svg" width="45.529" height="28.995" viewBox="0 0 45.529 28.995"><g transform="translate(0 0)"><path d="M408.813,182.263c.291-.55.836-.449,1.371-.478,0-.58,0-1.125,0-1.669,0-.815.21-1.02,1.031-1.024h.546c0-.588,0-1.145,0-1.7,0-.762.226-.993.969-.993h37.7c.724,0,.959.234.964.954,0,.534,0,1.067.009,1.6a.679.679,0,0,0,.05.143c.208,0,.439-.006.67,0,.583.018.832.262.843.853s0,1.206,0,1.859c.249,0,.438-.008.626,0a.7.7,0,0,1,.743.759c.006.1,0,.208,0,.311v21.429c0,.884-.188,1.076-1.059,1.076q-21.719,0-43.437.007a1.12,1.12,0,0,1-1.031-.452Zm44.088,1H410.267v20.669H452.9Zm-41.264-1.49h39.877V180.55H411.638Zm1.569-2.706h36.74v-1.207h-36.74Z" transform="translate(-408.813 -176.394)"/><path d="M434.974,204.69a9.1,9.1,0,1,1,9.081-9.12A9.1,9.1,0,0,1,434.974,204.69Zm-7.682-9.135a7.669,7.669,0,1,0,7.729-7.634A7.675,7.675,0,0,0,427.293,195.555Z" transform="translate(-412.199 -178.4)"/><path d="M415.759,187.921a3.116,3.116,0,0,1-1.946,2.087c-.11.042-.2.3-.2.454-.012,3.111-.009,6.221-.009,9.331,0,.356-.02.713.012,1.065a.476.476,0,0,0,.238.341,2.954,2.954,0,0,1,1.811,1.833c.1.289.3.234.495.235l7.465,0a3,3,0,0,1,.531.024.695.695,0,0,1,.067,1.347,2.028,2.028,0,0,1-.527.049q-4.111,0-8.221,0c-.828,0-.976-.128-1.093-.937a1.479,1.479,0,0,0-1.3-1.263c-.729-.09-.9-.271-.9-.991q0-5.909,0-11.82c0-.7.175-.884.868-.967a1.494,1.494,0,0,0,1.337-1.331c.092-.709.286-.882,1.009-.882q4.177,0,8.353,0a1.6,1.6,0,0,1,.482.049.7.7,0,0,1-.126,1.361,3.027,3.027,0,0,1-.444.01Z" transform="translate(-409.482 -178.4)"/><path d="M457.694,190.067a3.093,3.093,0,0,1-2.127-2.147H453.96q-3.267,0-6.532,0c-.539,0-.858-.3-.825-.76.03-.412.333-.657.845-.659,1.244-.006,2.488,0,3.733,0q2.4,0,4.8,0c.657,0,.875.2.953.844a1.486,1.486,0,0,0,1.392,1.371c.6.063.812.277.813.885q.007,6,0,12c0,.6-.219.818-.819.887a1.461,1.461,0,0,0-1.386,1.369c-.078.632-.289.835-.918.836q-4.266.006-8.532,0c-.326,0-.663-.046-.783-.381a1.069,1.069,0,0,1,.023-.709c.138-.334.484-.335.8-.335,2.518,0,5.037,0,7.555.006.326,0,.515-.047.65-.41a2.689,2.689,0,0,1,1.666-1.619.4.4,0,0,0,.326-.437c-.01-3.525-.007-7.051-.009-10.576A1.411,1.411,0,0,0,457.694,190.067Z" transform="translate(-416.313 -178.399)"/><path d="M435.684,191.147c.095-1.1.229-1.39.724-1.355.943.066.658.84.744,1.4a2.934,2.934,0,0,1,1.871,1.185,4.894,4.894,0,0,1,.58,1.548.673.673,0,0,1-.656.824.716.716,0,0,1-.741-.724,1.536,1.536,0,0,0-1.052-1.339v2.989c1.56.363,2.619,1.23,2.452,3a2.98,2.98,0,0,1-2.448,2.625c-.1.545.2,1.353-.772,1.4-.5.023-.641-.285-.693-1.384-.12-.043-.255-.087-.388-.137a2.99,2.99,0,0,1-2.038-2.216,1.989,1.989,0,0,1-.046-.4.712.712,0,1,1,1.414-.109,1.548,1.548,0,0,0,1.074,1.352c0-.979.006-1.89-.008-2.8a.381.381,0,0,0-.188-.245,1.993,1.993,0,0,0-.378-.121,2.5,2.5,0,0,1-1.9-2.171,2.761,2.761,0,0,1,1.335-2.8A9.127,9.127,0,0,1,435.684,191.147Zm.014,1.586a1.4,1.4,0,0,0-1.055,1.513,1.07,1.07,0,0,0,1.055,1.04Zm1.454,7.029a1.4,1.4,0,0,0,1.044-1.524,1.07,1.07,0,0,0-1.044-1.024Z" transform="translate(-413.656 -179.053)"/></g></svg>