<svg xmlns="http://www.w3.org/2000/svg" width="45.375" height="45.382" viewBox="0 0 45.375 45.382"><g transform="translate(0 0)"><path d="M344.257,174.337c1,0,2.018.02,3.036-.005a2,2,0,0,1,2.044,2.7.462.462,0,0,0,.1.382,1.978,1.978,0,0,1-.2,2.923.553.553,0,0,0-.178.4,2.014,2.014,0,0,1-.75,2.13,7.215,7.215,0,0,1-.015,1.392,1.785,1.785,0,0,1-1.8,1.411,34.961,34.961,0,0,0-5.5.413,5.267,5.267,0,0,1-4.115-1.131.924.924,0,0,0-.539-.172c-.838-.018-1.676,0-2.514-.009-.633-.005-.883-.258-.884-.892q-.005-4.093,0-8.186c0-.656.256-.908.914-.913.716,0,1.433,0,2.149,0a4.416,4.416,0,0,0,3.681-3.635c.012-.732,0-1.463,0-2.2,0-.847.317-1.119,1.16-1.007a3.864,3.864,0,0,1,3.407,3.893C344.271,172.65,344.257,173.471,344.257,174.337Zm-3.107-4.843c0,.559-.011,1.015,0,1.471a4.2,4.2,0,0,1-1.555,3.458c-.5.426-1.025.817-1.557,1.2a.725.725,0,0,0-.354.669q.023,3.521,0,7.041a.71.71,0,0,0,.362.666c1.429.97,2.954.643,4.527.406a1.865,1.865,0,0,1,.149-1.64c.138-.219.055-.359,0-.57a2.788,2.788,0,0,1-.176-1.354.923.923,0,0,0-.4-1.061c-.2.126-.376.247-.561.352a.726.726,0,0,1-1.072-.216.753.753,0,0,1,.3-1.024,8.728,8.728,0,0,0,.909-.686,1.658,1.658,0,0,0,.359-2.394.846.846,0,0,1,.107-1.043,2.387,2.387,0,0,0,.569-1.065,11.059,11.059,0,0,0-.046-2.458A2.22,2.22,0,0,0,341.15,169.494Zm-6.72,6.762v7.01H336.2v-7.01Zm11.544,3.02h1.966c.315,0,.545-.121.561-.463.018-.364-.213-.534-.544-.536-1.326-.01-2.652-.009-3.978,0-.333,0-.576.169-.566.521s.254.487.594.483C344.664,179.272,345.32,179.277,345.975,179.277Zm-.032-2.471h1.506a.472.472,0,0,0,.541-.487.482.482,0,0,0-.529-.511q-1.506-.018-3.013,0a.473.473,0,0,0-.517.517c.013.325.228.479.551.479Zm-.158,4.941c.426,0,.852,0,1.277,0,.342,0,.58-.147.583-.494s-.242-.507-.575-.51q-1.278-.008-2.555,0c-.33,0-.582.149-.584.5s.236.5.575.5C344.934,181.746,345.36,181.747,345.785,181.747Zm-.376,2.469v0c.334,0,.668.006,1,0,.307-.008.534-.2.483-.477a.725.725,0,0,0-.464-.493,16.822,16.822,0,0,0-2-.019.5.5,0,1,0,.024.992C344.772,184.218,345.091,184.216,345.41,184.216Z" transform="translate(-332.938 -167.914)"/><path d="M368.694,178.384a5.733,5.733,0,1,1,6.523-.014c.528.235,1.062.433,1.561.7a10.489,10.489,0,0,1,5.68,8.084c.1.657-.186,1-.844,1q-9.672.005-19.342,0c-.645,0-.923-.3-.833-.956a10.416,10.416,0,0,1,5.351-7.957,9.988,9.988,0,0,1,.939-.466C368.03,178.637,368.344,178.523,368.694,178.384Zm-5.675,8.271h17.838a9.1,9.1,0,0,0-17.838,0Zm13.169-13.035a4.253,4.253,0,1,0-4.219,4.27A4.249,4.249,0,0,0,376.188,173.62Z" transform="translate(-337.102 -167.915)"/><path d="M341.892,218a8.966,8.966,0,1,1,8.979-8.942A8.981,8.981,0,0,1,341.892,218Zm7.515-8.934a7.5,7.5,0,1,0-7.534,7.47A7.514,7.514,0,0,0,349.408,209.062Z" transform="translate(-332.938 -172.614)"/><path d="M360.788,207.34h9.864V194.728a3.159,3.159,0,0,1,.014-.5.662.662,0,0,1,.639-.608.651.651,0,0,1,.745.469,1.963,1.963,0,0,1,.064.585q0,6.518,0,13.037c0,.9-.2,1.11-1.094,1.11H360.79c.105.126.18.2.239.289a.7.7,0,0,1,0,.89.641.641,0,0,1-.894.2c-.784-.5-1.558-1.014-2.307-1.564a.686.686,0,0,1,.049-1.137c.718-.516,1.452-1.008,2.193-1.49a.675.675,0,0,1,.944.149C361.291,206.467,361.226,206.84,360.788,207.34Z" transform="translate(-336.536 -171.671)"/><path d="M360.032,178.924h-1.445c-.869,0-1.738,0-2.607,0-.623,0-.961-.261-.966-.723s.336-.735.953-.738c1.142,0,2.286,0,3.429,0h.579c-.1-.143-.167-.227-.227-.316a.682.682,0,0,1,.037-.885.638.638,0,0,1,.862-.184c.8.5,1.583,1.031,2.339,1.593a.664.664,0,0,1-.049,1.1c-.727.527-1.475,1.028-2.23,1.514a.664.664,0,0,1-.909-.143.685.685,0,0,1-.005-.955C359.844,179.118,359.907,179.06,360.032,178.924Z" transform="translate(-336.165 -169.092)"/><path d="M343.793,192.962v3.775c0,.153,0,.3,0,.457a.752.752,0,0,1-.75.8.739.739,0,0,1-.708-.8c-.009-1.233,0-2.466,0-3.7v-.517c-.137.119-.218.2-.309.265a.679.679,0,0,1-.884-.021.648.648,0,0,1-.178-.9c.492-.768,1-1.529,1.535-2.267a.7.7,0,0,1,1.195.064c.459.644.895,1.3,1.335,1.961.323.482.311.857-.027,1.139S344.311,193.449,343.793,192.962Z" transform="translate(-334.094 -171.107)"/><path d="M342.252,202.335a7.027,7.027,0,1,1-7.04,7A7.059,7.059,0,0,1,342.252,202.335Zm-.02,1.464a5.563,5.563,0,1,0,5.568,5.557A5.6,5.6,0,0,0,342.232,203.8Z" transform="translate(-333.27 -172.946)"/><path d="M343.724,206.027a2.635,2.635,0,0,1,1.663,1.32c.265.511.183.928-.229,1.146s-.751.067-1.045-.427a1.274,1.274,0,0,0-1.77-.487.909.909,0,0,0-.417.632.842.842,0,0,0,.457.587,8.312,8.312,0,0,0,1.23.329,2.5,2.5,0,0,1,2.012,1.659,2.067,2.067,0,0,1-1.513,2.62c-.115.039-.233.071-.346.105-.174.73-.383.968-.828.95s-.644-.289-.731-.947c-.164-.063-.336-.121-.5-.2a2.474,2.474,0,0,1-1.437-1.62.726.726,0,0,1,1.353-.523,1.517,1.517,0,0,0,2.145.776c.2-.095.453-.354.452-.537a.86.86,0,0,0-.4-.632,6.351,6.351,0,0,0-1.168-.366,8.057,8.057,0,0,1-.826-.254,2.017,2.017,0,0,1-1.389-1.957,2.1,2.1,0,0,1,1.393-2.015c.251-.108.421-.192.44-.526a.635.635,0,0,1,.69-.6.694.694,0,0,1,.727.57A2.5,2.5,0,0,1,343.724,206.027Z" transform="translate(-334.004 -173.345)"/></g></svg>